<svg xmlns="http://www.w3.org/2000/svg" xmlns:xlink="http://www.w3.org/1999/xlink" id="svg" width="400" height="350.693" version="1.1" viewBox="0 0 400 350.693"><g id="svgg"><path id="path0" fill="#2ca4dc" fill-rule="evenodd" stroke="none" d="M220.785 62.200 L 200.702 82.295 200.702 128.867 L 200.702 175.439 246.600 175.439 L 292.499 175.439 298.618 169.063 C 301.983 165.557,306.237 161.157,308.070 159.287 C 309.904 157.417,315.035 152.130,319.474 147.538 C 323.912 142.946,328.689 138.024,330.088 136.600 L 332.632 134.012 332.632 88.059 L 332.632 42.105 286.750 42.105 L 240.869 42.105 220.785 62.200 M64.211 89.309 L 64.211 135.109 84.365 155.274 L 104.519 175.439 151.031 175.439 L 197.544 175.439 197.544 129.542 L 197.544 83.645 193.596 79.797 C 191.425 77.680,184.686 71.136,178.619 65.255 C 172.552 59.373,165.052 52.079,161.952 49.044 L 156.316 43.527 110.263 43.518 L 64.211 43.509 64.211 89.309 M324.912 47.071 C 324.912 47.293,316.820 55.579,306.930 65.484 L 288.947 83.493 267.105 83.501 L 245.263 83.509 245.263 65.088 L 245.263 46.667 285.088 46.667 C 314.904 46.667,324.912 46.768,324.912 47.071 M151.845 65.702 L 151.754 83.333 129.899 83.424 L 108.044 83.514 90.543 65.996 C 80.918 56.361,73.134 48.386,73.247 48.274 C 73.359 48.162,91.110 48.070,112.693 48.070 L 151.936 48.070 151.845 65.702 M240.526 66.345 L 240.526 83.333 223.421 83.424 C 211.167 83.490,206.316 83.406,206.316 83.130 C 206.316 82.584,239.749 49.140,240.175 49.259 C 240.403 49.322,240.526 55.319,240.526 66.345 M161.638 54.715 C 164.114 57.115,169.308 62.168,173.180 65.943 C 177.051 69.718,182.538 75.052,185.373 77.796 C 188.207 80.541,190.526 82.948,190.526 83.147 C 190.526 83.390,184.953 83.509,173.509 83.509 L 156.491 83.509 156.491 66.813 C 156.491 56.805,156.620 50.164,156.814 50.234 C 156.991 50.298,159.162 52.315,161.638 54.715 M87.632 69.212 L 105.614 87.183 105.614 109.030 L 105.614 130.877 87.193 130.877 L 68.772 130.877 68.772 91.111 C 68.772 69.240,68.877 51.240,69.006 51.111 C 69.297 50.820,66.774 48.368,87.632 69.212 M328.070 90.547 L 328.070 129.825 310.351 129.825 L 292.632 129.825 292.632 107.818 L 292.632 85.812 310.071 68.368 C 319.662 58.773,327.636 51.001,327.790 51.096 C 327.944 51.192,328.070 68.944,328.070 90.547 M192.982 129.474 L 192.982 170.877 151.579 170.877 L 110.175 170.877 110.175 129.474 L 110.175 88.070 151.579 88.070 L 192.982 88.070 192.982 129.474 M288.070 129.474 L 288.070 170.877 246.491 170.877 L 204.912 170.877 204.912 129.708 C 204.912 107.064,205.018 88.433,205.146 88.304 C 205.275 88.175,223.985 88.070,246.725 88.070 L 288.070 88.070 288.070 129.474 M325.614 134.742 C 325.614 135.064,322.494 138.355,312.632 148.438 C 310.798 150.312,305.690 155.575,301.280 160.133 C 296.870 164.692,293.120 168.421,292.947 168.421 C 292.765 168.421,292.632 161.225,292.632 151.404 L 292.632 134.386 309.123 134.386 C 320.046 134.386,325.614 134.506,325.614 134.742 M105.614 152.632 C 105.614 162.236,105.478 169.825,105.307 169.825 C 104.783 169.825,71.230 136.070,71.431 135.745 C 71.535 135.577,79.269 135.439,88.617 135.439 L 105.614 135.439 105.614 152.632 M99.300 185.702 C 95.538 189.610,89.755 195.570,86.449 198.947 C 80.653 204.869,75.782 209.905,69.458 216.515 C 67.809 218.239,66.269 219.649,66.037 219.649 C 65.709 219.649,65.614 229.989,65.614 265.614 L 65.614 311.579 111.846 311.579 L 158.079 311.579 177.811 291.835 L 197.544 272.091 197.544 225.344 L 197.544 178.596 151.842 178.597 L 106.140 178.598 99.300 185.702 M200.702 224.314 L 200.702 270.031 207.979 277.033 C 211.981 280.884,218.257 286.968,221.926 290.553 C 225.595 294.138,230.711 299.112,233.295 301.606 C 241.176 309.211,241.754 309.797,241.754 310.168 C 241.754 310.410,256.593 310.526,287.544 310.526 L 333.333 310.526 333.323 264.123 L 333.313 217.719 313.755 198.158 L 294.197 178.596 247.449 178.596 L 200.702 178.596 200.702 224.314 M193.598 224.298 L 193.687 265.965 152.282 265.965 L 110.877 265.965 110.877 224.444 C 110.877 201.608,110.983 182.818,111.113 182.689 C 111.242 182.559,129.834 182.493,152.428 182.542 L 193.509 182.632 193.598 224.298 M288.070 223.861 L 288.070 265.266 246.404 265.177 L 204.737 265.088 204.647 224.211 C 204.597 201.728,204.631 183.136,204.723 182.895 C 204.856 182.547,213.531 182.456,246.480 182.456 L 288.070 182.456 288.070 223.861 M309.856 200.328 C 319.102 209.578,326.667 217.317,326.667 217.524 C 326.667 217.789,321.585 217.874,309.561 217.810 L 292.456 217.719 292.365 201.053 C 292.278 185.171,292.321 183.509,292.827 183.509 C 292.947 183.509,300.610 191.077,309.856 200.328 M106.140 202.485 L 106.140 219.474 90.000 219.565 C 73.277 219.660,72.754 219.636,73.226 218.812 C 73.480 218.369,82.254 209.279,98.593 192.532 C 101.776 189.270,104.618 186.302,104.909 185.937 C 106.073 184.477,106.140 185.378,106.140 202.485 M329.387 262.262 C 329.448 289.038,329.360 302.009,329.116 302.252 C 328.869 302.499,323.002 296.860,310.518 284.378 L 292.281 266.143 292.281 244.533 C 292.281 232.648,292.387 222.817,292.518 222.687 C 292.648 222.557,300.977 222.491,311.026 222.541 L 329.298 222.632 329.387 262.262 M106.230 245.965 L 106.320 267.895 88.766 285.439 C 74.817 299.379,71.143 302.874,70.874 302.456 C 70.504 301.878,70.373 225.370,70.741 224.411 C 70.933 223.910,72.733 223.862,88.548 223.944 L 106.140 224.035 106.230 245.965 M241.670 286.140 C 241.721 295.018,241.683 302.487,241.586 302.739 C 241.305 303.473,240.925 303.140,230.641 293.115 C 225.271 287.882,220.325 283.089,219.649 282.465 C 214.951 278.124,207.391 270.422,207.560 270.149 C 207.685 269.947,214.351 269.853,224.672 269.909 L 241.579 270.000 241.670 286.140 M307.546 287.384 C 321.335 301.196,324.966 305.015,324.556 305.274 C 323.983 305.636,247.458 305.761,246.520 305.401 C 245.941 305.179,245.627 270.630,246.199 270.058 C 246.327 269.930,256.239 269.825,268.223 269.825 L 290.014 269.825 307.546 287.384 M153.509 288.772 L 153.509 307.193 113.879 307.282 C 87.103 307.343,74.132 307.255,73.888 307.011 C 73.641 306.764,79.281 300.896,91.764 288.411 L 110.000 270.171 131.754 270.261 L 153.509 270.351 153.509 288.772 M192.370 270.614 C 192.536 271.109,158.918 304.933,158.509 304.682 C 158.184 304.482,158.155 270.734,158.480 270.409 C 158.951 269.938,192.210 270.139,192.370 270.614"/><path id="path1" fill="#fbfbfc" fill-rule="evenodd" stroke="none" d="M0.000 175.439 L 0.000 350.877 200.000 350.877 L 400.000 350.877 400.000 175.439 L 400.000 0.000 200.000 0.000 L 0.000 0.000 0.000 175.439 M332.973 88.158 L 332.963 134.561 329.583 138.070 C 327.724 140.000,323.425 144.428,320.031 147.910 C 316.637 151.392,309.518 158.723,304.211 164.202 C 298.904 169.681,294.103 174.609,293.543 175.153 L 292.525 176.143 246.350 176.054 L 200.175 175.965 200.086 129.058 L 199.997 82.151 220.169 61.953 L 240.341 41.754 286.662 41.754 L 332.982 41.754 332.973 88.158 M157.677 44.097 C 158.472 44.806,163.844 49.977,169.614 55.588 C 175.383 61.199,180.927 66.579,181.933 67.544 C 182.939 68.509,187.021 72.490,191.004 76.392 L 198.246 83.486 198.246 129.392 C 198.246 164.629,198.148 175.396,197.825 175.719 C 197.501 176.043,186.603 176.140,150.905 176.140 L 104.406 176.140 84.133 155.878 L 63.860 135.616 63.860 89.445 C 63.860 64.052,63.965 43.170,64.094 43.041 C 64.222 42.912,85.006 42.807,110.279 42.807 L 156.231 42.807 157.677 44.097 M245.614 65.088 L 245.614 83.158 266.931 83.158 L 288.248 83.158 306.316 65.088 L 324.383 47.018 284.999 47.018 L 245.614 47.018 245.614 65.088 M91.229 65.792 L 108.596 83.162 130.000 83.072 L 151.404 82.982 151.495 65.702 L 151.586 48.421 112.724 48.421 L 73.862 48.421 91.229 65.792 M223.332 66.669 L 206.842 83.163 223.509 83.073 L 240.175 82.982 240.267 66.579 C 240.317 57.557,240.237 50.175,240.090 50.175 C 239.942 50.175,232.401 57.598,223.332 66.669 M156.842 67.150 L 156.842 83.158 173.421 83.155 L 190.000 83.152 185.563 78.857 C 177.049 70.615,163.859 57.812,160.955 54.969 C 159.345 53.394,157.761 51.889,157.435 51.624 C 156.880 51.173,156.842 52.164,156.842 67.150 M69.123 91.228 L 69.123 130.526 87.193 130.526 L 105.263 130.526 105.263 109.072 L 105.263 87.617 87.456 69.776 C 77.662 59.964,69.531 51.934,69.386 51.932 C 69.241 51.931,69.123 69.614,69.123 91.228 M310.222 69.211 L 292.987 86.491 292.985 107.982 L 292.982 129.474 310.351 129.474 L 327.719 129.474 327.719 90.702 C 327.719 69.377,327.660 51.930,327.588 51.930 C 327.516 51.930,319.701 59.706,310.222 69.211 M110.526 129.474 L 110.526 170.526 151.579 170.526 L 192.632 170.526 192.632 129.474 L 192.632 88.421 151.579 88.421 L 110.526 88.421 110.526 129.474 M205.614 129.474 L 205.614 170.526 246.667 170.526 L 287.719 170.526 287.719 129.474 L 287.719 88.421 246.667 88.421 L 205.614 88.421 205.614 129.474 M292.982 151.282 L 292.982 167.827 294.287 166.457 C 296.479 164.157,317.702 142.273,323.095 136.754 L 325.066 134.737 309.024 134.737 L 292.982 134.737 292.982 151.282 M72.281 136.054 C 72.281 136.200,79.702 143.738,88.772 152.807 L 105.263 169.295 105.263 152.542 L 105.263 135.789 88.772 135.789 C 79.702 135.789,72.281 135.909,72.281 136.054 M198.166 224.561 C 198.219 250.132,198.178 271.401,198.076 271.827 C 197.973 272.253,188.967 281.529,178.062 292.441 L 158.235 312.281 111.749 312.281 L 65.263 312.281 65.263 265.614 C 65.263 229.748,65.360 218.947,65.681 218.947 C 66.064 218.947,68.632 216.384,78.930 205.725 C 80.947 203.638,87.039 197.351,92.469 191.754 C 97.899 186.158,103.138 180.749,104.111 179.736 L 105.880 177.892 151.975 177.981 L 198.070 178.070 198.166 224.561 M314.363 197.951 L 334.389 218.007 334.300 264.354 L 334.211 310.702 287.621 310.791 C 243.487 310.875,241.020 310.847,240.803 310.264 C 240.677 309.926,239.616 308.726,238.445 307.598 C 237.274 306.470,234.022 303.312,231.218 300.580 C 223.877 293.428,204.010 274.136,201.842 272.055 L 200.000 270.287 200.000 224.325 C 200.000 199.046,200.105 178.257,200.234 178.129 C 200.363 178.000,221.588 177.895,247.402 177.895 L 294.336 177.895 314.363 197.951 M205.263 223.860 L 205.263 264.912 246.316 264.912 L 287.368 264.912 287.368 223.860 L 287.368 182.807 246.316 182.807 L 205.263 182.807 205.263 223.860 M111.228 224.386 L 111.228 265.263 152.281 265.263 L 193.333 265.263 193.333 224.386 L 193.333 183.509 152.281 183.509 L 111.228 183.509 111.228 224.386 M292.982 200.978 L 292.982 217.544 309.474 217.544 C 318.544 217.544,325.965 217.504,325.964 217.456 C 325.964 217.408,318.543 209.953,309.473 200.891 L 292.982 184.413 292.982 200.978 M104.805 187.026 C 104.531 187.417,101.009 191.096,96.978 195.201 C 92.947 199.306,86.117 206.330,81.801 210.810 L 73.952 218.955 89.871 218.863 L 105.789 218.772 105.881 202.544 C 105.971 186.393,105.906 185.454,104.805 187.026 M292.982 244.355 L 292.982 265.903 310.702 283.655 L 328.421 301.406 328.421 262.107 L 328.421 222.807 310.702 222.807 L 292.982 222.807 292.982 244.355 M71.228 263.241 L 71.228 301.927 88.599 284.560 L 105.969 267.193 105.879 245.965 L 105.789 224.737 88.509 224.646 L 71.228 224.555 71.228 263.241 M208.421 270.319 C 208.421 270.493,219.097 281.010,226.836 288.461 C 229.921 291.430,234.342 295.706,236.661 297.962 L 240.877 302.064 240.969 286.558 C 241.019 278.030,240.985 270.855,240.892 270.614 C 240.733 270.199,208.421 269.906,208.421 270.319 M246.667 287.544 L 246.667 304.912 285.350 304.912 L 324.032 304.912 306.667 287.544 L 289.301 270.175 267.984 270.175 L 246.667 270.175 246.667 287.544 M92.368 288.708 C 82.671 298.466,74.737 306.498,74.737 306.558 C 74.737 306.618,92.421 306.667,114.035 306.667 L 153.333 306.667 153.333 288.772 L 153.333 270.877 131.667 270.922 L 110.000 270.966 92.368 288.708 M158.596 287.455 L 158.596 304.032 175.088 287.544 C 184.158 278.475,191.579 271.015,191.579 270.966 C 191.579 270.917,184.158 270.877,175.088 270.877 L 158.596 270.877 158.596 287.455"/><path id="path2" fill="#67bde4" fill-rule="evenodd" stroke="none" d="M220.702 61.930 C 209.800 72.833,201.037 81.729,201.229 81.698 C 201.593 81.639,241.002 42.105,240.697 42.105 C 240.602 42.105,231.604 51.026,220.702 61.930 M110.236 43.507 L 156.437 43.684 161.990 49.096 C 165.045 52.072,168.818 55.704,170.374 57.166 C 171.931 58.628,169.405 56.080,164.760 51.504 L 156.316 43.183 110.175 43.256 L 64.035 43.329 110.236 43.507 M151.663 65.532 L 151.579 83.168 129.649 83.075 C 117.588 83.024,107.719 83.101,107.719 83.246 C 107.719 83.738,151.580 83.564,151.769 83.070 C 151.861 82.829,151.894 74.816,151.842 65.263 L 151.748 47.895 151.663 65.532 M73.684 48.898 C 73.684 49.259,75.449 50.984,75.632 50.801 C 75.714 50.718,75.310 50.198,74.733 49.646 C 74.156 49.093,73.684 48.756,73.684 48.898 M239.991 49.354 C 240.229 49.472,240.351 55.213,240.351 66.345 L 240.351 83.158 223.488 83.158 C 212.336 83.158,206.699 83.039,206.842 82.807 C 206.961 82.614,206.892 82.456,206.687 82.456 C 206.483 82.456,206.316 82.694,206.316 82.986 C 206.316 83.452,208.362 83.505,223.421 83.424 L 240.526 83.333 240.526 66.345 C 240.526 52.858,240.434 49.338,240.079 49.266 C 239.833 49.216,239.793 49.256,239.991 49.354 M321.206 50.965 L 320.175 52.105 321.316 51.075 C 321.943 50.508,322.456 49.995,322.456 49.934 C 322.456 49.663,322.167 49.902,321.206 50.965 M161.172 54.634 C 163.699 57.103,168.425 61.728,171.673 64.912 C 174.921 68.096,177.728 70.754,177.911 70.819 C 178.095 70.883,175.521 68.266,172.193 65.004 C 162.254 55.265,157.153 50.357,156.856 50.248 C 156.702 50.191,158.644 52.165,161.172 54.634 M237.721 51.226 C 237.371 51.613,237.199 51.930,237.339 51.930 C 237.709 51.930,238.709 50.873,238.519 50.683 C 238.431 50.594,238.072 50.839,237.721 51.226 M69.017 51.100 C 68.882 51.235,68.810 69.279,68.857 91.199 L 68.943 131.053 69.121 91.136 L 69.298 51.219 87.460 69.393 C 97.449 79.389,105.581 87.446,105.530 87.297 C 105.454 87.071,82.320 63.799,72.193 53.761 C 70.581 52.163,69.151 50.966,69.017 51.100 M325.411 53.087 L 323.333 55.263 325.485 53.210 C 326.954 51.808,327.697 51.307,327.826 51.631 C 327.947 51.934,328.025 51.955,328.042 51.687 C 328.111 50.657,327.339 51.067,325.411 53.087 M76.842 52.051 C 76.842 52.191,77.316 52.767,77.895 53.333 C 78.474 53.899,78.947 54.239,78.947 54.089 C 78.947 53.939,78.474 53.362,77.895 52.807 C 77.316 52.252,76.842 51.912,76.842 52.051 M318.750 53.421 L 317.719 54.561 318.860 53.531 C 319.487 52.964,320.000 52.451,320.000 52.390 C 320.000 52.119,319.710 52.358,318.750 53.421 M235.265 53.682 C 234.915 54.069,234.743 54.386,234.883 54.386 C 235.253 54.386,236.253 53.329,236.063 53.139 C 235.975 53.051,235.615 53.295,235.265 53.682 M316.294 55.877 L 315.263 57.018 316.404 55.987 C 317.031 55.420,317.544 54.907,317.544 54.847 C 317.544 54.576,317.254 54.814,316.294 55.877 M81.053 56.491 C 81.619 57.070,82.195 57.544,82.335 57.544 C 82.474 57.544,82.134 57.070,81.579 56.491 C 81.024 55.912,80.447 55.439,80.297 55.439 C 80.147 55.439,80.487 55.912,81.053 56.491 M232.809 56.138 C 232.459 56.525,232.287 56.842,232.427 56.842 C 232.797 56.842,233.797 55.785,233.607 55.595 C 233.518 55.507,233.159 55.751,232.809 56.138 M321.908 56.579 L 320.877 57.719 322.018 56.689 C 322.645 56.122,323.158 55.609,323.158 55.548 C 323.158 55.277,322.868 55.516,321.908 56.579 M230.353 58.594 C 230.002 58.981,229.830 59.298,229.971 59.298 C 230.341 59.298,231.341 58.241,231.151 58.051 C 231.062 57.963,230.703 58.207,230.353 58.594 M311.752 66.754 L 302.982 75.614 311.842 66.845 C 320.075 58.696,320.860 57.895,320.611 57.895 C 320.562 57.895,316.575 61.882,311.752 66.754 M84.155 59.649 C 84.761 60.228,85.367 60.702,85.501 60.702 C 85.635 60.702,85.292 60.228,84.737 59.649 C 84.182 59.070,83.577 58.596,83.391 58.596 C 83.206 58.596,83.549 59.070,84.155 59.649 M174.536 61.313 C 175.101 61.938,175.640 62.372,175.735 62.277 C 175.829 62.183,175.841 62.066,175.760 62.018 C 175.680 61.969,175.140 61.536,174.561 61.054 L 173.509 60.178 174.536 61.313 M227.897 61.050 C 227.546 61.438,227.374 61.754,227.515 61.754 C 227.884 61.754,228.885 60.697,228.695 60.507 C 228.606 60.419,228.247 60.663,227.897 61.050 M310.680 61.491 L 309.649 62.632 310.789 61.601 C 311.417 61.034,311.930 60.521,311.930 60.461 C 311.930 60.190,311.640 60.428,310.680 61.491 M87.368 62.602 C 87.368 62.972,88.425 63.972,88.615 63.782 C 88.704 63.694,88.459 63.335,88.072 62.984 C 87.685 62.634,87.368 62.462,87.368 62.602 M225.441 63.507 C 225.090 63.894,224.918 64.211,225.058 64.211 C 225.428 64.211,226.428 63.154,226.238 62.964 C 226.150 62.875,225.791 63.119,225.441 63.507 M307.356 64.825 L 305.439 66.842 307.456 64.924 C 309.331 63.143,309.634 62.807,309.374 62.807 C 309.319 62.807,308.411 63.715,307.356 64.825 M177.895 64.259 C 177.895 64.454,182.715 69.229,193.421 79.637 L 197.544 83.645 197.544 129.545 L 197.544 175.444 150.877 175.353 C 125.211 175.304,104.211 175.382,104.211 175.528 C 104.211 175.673,125.250 175.752,150.965 175.703 L 197.719 175.614 197.808 129.633 L 197.897 83.652 192.370 78.247 C 189.330 75.275,184.829 70.863,182.368 68.444 C 179.908 66.025,177.895 64.141,177.895 64.259 M89.825 65.034 C 89.825 65.173,90.298 65.750,90.877 66.316 C 91.456 66.882,91.930 67.222,91.930 67.071 C 91.930 66.921,91.456 66.344,90.877 65.789 C 90.298 65.235,89.825 64.895,89.825 65.034 M222.984 65.963 C 222.634 66.350,222.462 66.667,222.602 66.667 C 222.972 66.667,223.972 65.610,223.782 65.420 C 223.694 65.331,223.335 65.576,222.984 65.963 M304.013 68.158 L 302.982 69.298 304.123 68.268 C 304.750 67.701,305.263 67.188,305.263 67.127 C 305.263 66.856,304.974 67.095,304.013 68.158 M94.035 69.269 C 94.035 69.639,95.092 70.639,95.282 70.449 C 95.371 70.360,95.126 70.001,94.739 69.651 C 94.352 69.301,94.035 69.129,94.035 69.269 M300.855 71.316 L 299.825 72.456 300.965 71.426 C 301.592 70.859,302.105 70.346,302.105 70.285 C 302.105 70.014,301.816 70.253,300.855 71.316 M95.967 71.581 C 96.317 71.968,96.676 72.213,96.765 72.124 C 96.955 71.934,95.955 70.877,95.585 70.877 C 95.445 70.877,95.616 71.194,95.967 71.581 M97.195 72.371 C 97.192 72.755,99.034 74.767,99.218 74.583 C 99.304 74.498,98.883 73.905,98.285 73.267 C 97.686 72.628,97.195 72.225,97.195 72.371 M180.000 72.665 C 180.000 72.774,182.297 75.139,185.104 77.922 L 190.207 82.982 173.262 83.163 L 156.316 83.343 173.421 83.426 C 192.175 83.517,191.429 83.617,189.035 81.323 C 188.215 80.537,185.846 78.223,183.772 76.181 C 181.697 74.139,180.000 72.557,180.000 72.665 M298.399 73.772 L 297.368 74.912 298.509 73.882 C 299.136 73.315,299.649 72.802,299.649 72.741 C 299.649 72.470,299.360 72.709,298.399 73.772 M214.914 74.033 C 214.564 74.420,214.392 74.737,214.532 74.737 C 214.902 74.737,215.902 73.680,215.712 73.490 C 215.624 73.401,215.265 73.646,214.914 74.033 M295.943 76.228 L 294.912 77.368 296.053 76.338 C 296.680 75.771,297.193 75.258,297.193 75.198 C 297.193 74.926,296.903 75.165,295.943 76.228 M212.458 76.489 C 212.108 76.876,211.936 77.193,212.076 77.193 C 212.446 77.193,213.446 76.136,213.256 75.946 C 213.168 75.858,212.808 76.102,212.458 76.489 M301.557 76.930 L 300.526 78.070 301.667 77.040 C 302.294 76.473,302.807 75.960,302.807 75.899 C 302.807 75.628,302.517 75.867,301.557 76.930 M293.487 78.684 L 292.456 79.825 293.596 78.794 C 294.224 78.227,294.737 77.714,294.737 77.654 C 294.737 77.383,294.447 77.621,293.487 78.684 M210.002 78.945 C 209.652 79.332,209.480 79.649,209.620 79.649 C 209.990 79.649,210.990 78.592,210.800 78.402 C 210.711 78.314,210.352 78.558,210.002 78.945 M299.101 79.386 L 298.070 80.526 299.211 79.496 C 299.838 78.929,300.351 78.416,300.351 78.355 C 300.351 78.084,300.061 78.323,299.101 79.386 M104.130 79.649 C 104.544 80.035,104.993 80.351,105.127 80.351 C 105.262 80.351,105.086 80.035,104.737 79.649 C 104.388 79.263,103.939 78.947,103.739 78.947 C 103.540 78.947,103.715 79.263,104.130 79.649 M290.685 81.491 L 289.298 82.982 290.789 81.595 C 292.176 80.306,292.442 80.000,292.176 80.000 C 292.119 80.000,291.448 80.671,290.685 81.491 M207.546 81.401 C 207.195 81.789,207.023 82.105,207.164 82.105 C 207.534 82.105,208.534 81.048,208.344 80.858 C 208.255 80.770,207.896 81.014,207.546 81.401 M295.088 83.333 C 293.650 84.781,292.553 85.965,292.649 85.965 C 292.746 85.965,294.001 84.781,295.439 83.333 C 296.876 81.886,297.974 80.702,297.877 80.702 C 297.781 80.702,296.525 81.886,295.088 83.333 M200.437 128.860 L 200.351 175.789 246.411 175.789 L 292.472 175.789 295.439 172.807 C 297.070 171.167,298.284 169.825,298.134 169.825 C 297.985 169.825,296.664 171.088,295.199 172.632 L 292.535 175.439 246.620 175.439 L 200.704 175.439 200.614 128.684 L 200.524 81.930 200.437 128.860 M256.253 83.421 C 262.395 83.475,272.342 83.475,278.359 83.421 C 284.375 83.367,279.351 83.323,267.193 83.323 C 255.035 83.323,250.112 83.367,256.253 83.421 M205.082 129.649 C 205.082 152.421,205.124 161.685,205.175 150.236 C 205.227 138.787,205.227 120.155,205.175 108.833 C 205.124 97.510,205.082 106.877,205.082 129.649 M301.516 129.737 C 306.499 129.792,314.551 129.792,319.410 129.737 C 324.270 129.682,320.193 129.637,310.351 129.637 C 300.509 129.637,296.533 129.682,301.516 129.737 M324.825 135.274 C 323.992 136.390,324.050 136.652,324.934 135.768 C 325.332 135.370,325.609 134.910,325.548 134.747 C 325.488 134.584,325.162 134.821,324.825 135.274 M71.431 135.745 C 71.230 136.070,104.783 169.825,105.307 169.825 C 105.476 169.825,105.612 169.548,105.609 169.211 C 105.605 168.787,105.519 168.729,105.332 169.023 C 105.152 169.307,99.439 163.825,88.232 152.615 L 71.404 135.780 88.509 135.872 C 97.917 135.923,105.614 135.846,105.614 135.702 C 105.614 135.329,71.661 135.373,71.431 135.745 M328.823 137.831 C 327.983 138.735,325.388 141.447,323.056 143.860 C 320.725 146.272,317.149 149.985,315.110 152.112 C 313.072 154.238,313.768 153.606,316.658 150.708 C 326.718 140.618,331.041 136.141,330.697 136.164 C 330.507 136.178,329.663 136.928,328.823 137.831 M67.187 138.590 C 67.937 139.358,68.616 139.922,68.696 139.842 C 68.876 139.662,66.438 137.193,66.081 137.193 C 65.939 137.193,66.436 137.822,67.187 138.590 M318.533 141.879 C 316.279 144.217,314.482 146.178,314.541 146.237 C 314.600 146.296,316.523 144.430,318.815 142.090 C 321.107 139.751,323.048 137.771,323.129 137.690 C 323.209 137.610,323.130 137.563,322.953 137.586 C 322.776 137.609,320.787 139.541,318.533 141.879 M72.094 143.498 C 73.817 145.229,75.286 146.586,75.358 146.514 C 75.526 146.345,69.553 140.351,69.216 140.351 C 69.076 140.351,70.372 141.767,72.094 143.498 M75.789 146.940 C 75.789 147.081,81.947 153.353,89.474 160.877 C 97.000 168.402,103.158 174.453,103.158 174.324 C 103.158 174.195,97.000 167.924,89.474 160.387 C 81.947 152.850,75.789 146.799,75.789 146.940 M301.223 159.818 C 296.835 164.350,293.107 167.972,292.939 167.868 C 292.770 167.763,292.632 167.845,292.632 168.049 C 292.632 168.944,293.699 167.970,301.162 160.263 C 305.508 155.776,309.182 151.987,309.327 151.842 C 309.472 151.697,309.503 151.579,309.396 151.579 C 309.289 151.579,305.611 155.287,301.223 159.818 M303.509 163.914 C 300.904 166.615,298.723 168.960,298.663 169.124 C 298.585 169.341,305.497 162.466,308.743 159.099 C 308.823 159.016,308.744 158.960,308.567 158.975 C 308.390 158.990,306.114 161.213,303.509 163.914 M103.860 180.526 C 102.616 181.781,101.718 182.807,101.864 182.807 C 102.010 182.807,103.012 181.860,104.092 180.702 L 106.054 178.596 151.799 178.596 L 197.544 178.596 197.544 225.344 L 197.544 272.091 177.811 291.835 L 158.079 311.579 111.759 311.665 L 65.439 311.752 111.752 311.842 L 158.065 311.932 177.980 292.020 L 197.895 272.108 197.895 225.177 L 197.895 178.246 152.007 178.246 L 106.120 178.246 103.860 180.526 M200.351 224.129 L 200.351 270.013 203.860 273.509 C 205.789 275.431,207.368 276.887,207.368 276.743 C 207.368 276.600,205.868 275.033,204.035 273.261 L 200.702 270.039 200.702 224.318 L 200.702 178.596 247.449 178.596 L 294.197 178.596 313.755 198.158 L 333.313 217.719 333.323 264.123 L 333.333 310.526 287.544 310.526 C 257.611 310.526,241.754 310.406,241.754 310.180 C 241.754 309.822,230.784 298.923,230.605 299.103 C 230.549 299.158,233.148 301.831,236.380 305.042 L 242.255 310.880 288.057 310.791 L 333.860 310.702 333.949 264.388 L 334.038 218.075 314.125 198.160 L 294.213 178.246 247.282 178.246 L 200.351 178.246 200.351 224.129 M111.053 182.807 C 110.909 183.040,124.740 183.158,152.281 183.158 C 179.821 183.158,193.653 183.040,193.509 182.807 C 193.366 182.576,179.243 182.456,152.281 182.456 C 125.318 182.456,111.195 182.576,111.053 182.807 M204.795 182.690 C 204.470 183.015,204.500 264.833,204.825 265.034 C 204.969 265.123,205.088 246.580,205.088 223.826 C 205.088 201.073,205.075 182.456,205.058 182.456 C 205.042 182.456,204.924 182.561,204.795 182.690 M287.889 223.860 C 287.889 246.728,287.931 256.083,287.982 244.649 C 288.034 233.215,288.034 214.504,287.982 203.070 C 287.931 191.636,287.889 200.991,287.889 223.860 M292.515 183.743 C 292.190 184.067,292.219 217.464,292.544 217.665 C 292.689 217.755,292.765 210.185,292.713 200.844 C 292.661 191.503,292.748 183.860,292.906 183.860 C 293.064 183.860,293.414 184.057,293.685 184.298 C 294.103 184.671,294.107 184.645,293.712 184.123 C 293.217 183.468,292.892 183.365,292.515 183.743 M99.827 184.559 C 99.476 184.946,99.304 185.263,99.444 185.263 C 99.814 185.263,100.814 184.206,100.624 184.016 C 100.536 183.928,100.177 184.172,99.827 184.559 M104.909 185.937 C 104.618 186.302,101.776 189.270,98.593 192.532 C 72.622 219.153,72.692 219.077,73.383 219.505 C 73.634 219.660,73.698 219.605,73.549 219.364 C 73.407 219.133,75.810 216.396,79.372 212.732 C 86.669 205.230,95.061 196.611,101.336 190.175 L 105.956 185.439 105.872 202.526 C 105.827 211.925,105.909 219.494,106.056 219.348 C 106.469 218.935,106.206 185.518,105.789 185.385 C 105.596 185.324,105.200 185.572,104.909 185.937 M295.088 185.856 C 295.088 186.049,295.404 186.493,295.789 186.842 C 296.175 187.191,296.491 187.319,296.491 187.126 C 296.491 186.933,296.175 186.490,295.789 186.140 C 295.404 185.791,295.088 185.663,295.088 185.856 M88.090 196.842 C 83.024 202.053,78.952 206.316,79.041 206.316 C 79.130 206.316,81.953 203.513,85.315 200.088 C 93.880 191.362,97.702 187.368,97.485 187.368 C 97.383 187.368,93.155 191.632,88.090 196.842 M297.545 188.161 C 297.543 188.544,299.385 190.557,299.569 190.372 C 299.654 190.287,299.234 189.695,298.636 189.056 C 298.037 188.417,297.546 188.015,297.545 188.161 M300.000 190.672 C 300.000 191.042,301.057 192.043,301.247 191.852 C 301.335 191.764,301.091 191.405,300.704 191.055 C 300.317 190.704,300.000 190.532,300.000 190.672 M302.281 193.333 C 302.835 193.912,303.441 194.386,303.626 194.386 C 303.812 194.386,303.468 193.912,302.862 193.333 C 302.256 192.754,301.651 192.281,301.516 192.281 C 301.382 192.281,301.726 192.754,302.281 193.333 M304.912 195.706 C 304.912 196.091,306.612 197.720,306.801 197.516 C 306.876 197.435,306.482 196.924,305.925 196.381 C 305.368 195.839,304.912 195.535,304.912 195.706 M308.070 198.830 C 308.070 199.015,308.544 199.621,309.123 200.175 C 309.702 200.730,310.175 201.074,310.175 200.940 C 310.175 200.805,309.702 200.200,309.123 199.594 C 308.544 198.988,308.070 198.644,308.070 198.830 M312.456 203.494 C 313.228 204.255,314.017 204.886,314.209 204.895 C 314.401 204.905,313.887 204.281,313.068 203.509 C 311.140 201.693,310.617 201.680,312.456 203.494 M315.263 206.316 C 315.818 206.895,316.439 207.368,316.645 207.367 C 316.850 207.366,316.513 206.892,315.896 206.314 C 314.440 204.949,313.955 204.950,315.263 206.316 M70.964 214.327 L 65.261 220.128 65.351 265.766 L 65.441 311.404 65.528 265.526 C 65.594 230.104,65.710 219.649,66.035 219.649 C 66.267 219.649,67.774 218.268,69.385 216.579 C 70.995 214.890,73.446 212.364,74.832 210.965 C 76.217 209.566,77.197 208.445,77.009 208.474 C 76.821 208.503,74.100 211.137,70.964 214.327 M317.896 208.619 C 317.895 208.824,318.368 209.445,318.947 210.000 C 320.313 211.308,320.314 210.823,318.949 209.367 C 318.371 208.750,317.897 208.413,317.896 208.619 M320.366 211.080 C 320.385 211.505,323.778 214.941,323.967 214.727 C 324.047 214.636,323.266 213.705,322.232 212.659 C 321.197 211.612,320.358 210.902,320.366 211.080 M325.231 216.283 C 326.255 217.339,326.314 217.498,325.739 217.646 C 325.203 217.784,325.228 217.821,325.877 217.854 C 326.959 217.910,326.867 217.285,325.617 216.091 C 324.142 214.681,323.829 214.837,325.231 216.283 M292.515 222.690 C 292.386 222.819,292.281 232.648,292.281 244.533 L 292.281 266.143 310.518 284.378 C 323.002 296.860,328.869 302.499,329.116 302.252 C 329.696 301.672,329.433 222.717,328.851 222.599 C 328.605 222.550,328.565 222.589,328.763 222.687 C 329.187 222.897,329.282 302.105,328.858 302.105 C 328.713 302.105,320.500 294.010,310.607 284.116 L 292.621 266.127 292.714 244.292 C 292.765 232.282,292.794 222.456,292.778 222.456 C 292.762 222.456,292.643 222.561,292.515 222.690 M70.741 224.411 C 70.623 224.718,70.565 242.365,70.612 263.625 L 70.697 302.281 70.875 263.333 L 71.053 224.386 88.509 224.295 L 105.965 224.204 105.965 246.054 L 105.965 267.904 88.501 285.356 C 78.895 294.954,71.119 302.807,71.221 302.807 C 71.323 302.807,79.262 294.950,88.864 285.347 L 106.321 267.887 106.231 245.961 L 106.140 224.035 88.548 223.944 C 72.733 223.862,70.933 223.910,70.741 224.411 M152.105 265.614 L 110.702 265.794 152.193 265.879 C 179.677 265.936,193.684 265.846,193.684 265.614 C 193.684 265.421,193.645 265.302,193.596 265.349 C 193.548 265.396,174.877 265.515,152.105 265.614 M207.560 270.149 C 207.448 270.331,209.845 272.908,212.888 275.876 C 223.713 286.433,228.252 290.824,228.460 290.937 C 228.577 291.001,223.918 286.359,218.108 280.623 L 207.544 270.193 224.474 270.184 L 241.404 270.175 241.404 286.491 C 241.404 295.465,241.349 302.807,241.282 302.807 C 241.025 302.807,239.306 301.194,234.649 296.583 C 231.996 293.956,229.825 291.930,229.825 292.081 C 229.825 292.388,240.152 302.472,240.920 302.914 C 241.741 303.387,241.765 302.856,241.670 286.140 L 241.579 270.000 224.672 269.909 C 214.351 269.853,207.685 269.947,207.560 270.149 M246.126 270.263 C 246.033 270.504,246.000 278.518,246.052 288.070 L 246.147 305.439 246.231 287.807 L 246.316 270.175 268.156 270.175 L 289.996 270.175 300.700 280.789 L 311.404 291.404 300.704 280.614 L 290.004 269.825 268.149 269.825 C 250.988 269.825,246.258 269.919,246.126 270.263 M91.763 288.413 C 79.280 300.897,73.641 306.764,73.888 307.011 C 74.537 307.660,153.416 307.319,153.594 306.667 C 153.701 306.275,153.658 306.253,153.426 306.580 C 153.179 306.930,144.944 307.002,113.487 306.931 L 73.860 306.842 91.930 288.679 L 110.000 270.516 131.809 270.609 C 143.803 270.660,153.544 270.583,153.455 270.439 C 153.365 270.294,143.551 270.175,131.645 270.175 L 109.997 270.175 91.763 288.413 M158.475 270.439 C 158.386 270.583,165.754 270.659,174.850 270.607 C 192.405 270.507,192.647 270.519,191.882 271.495 C 191.453 272.043,191.465 272.058,191.997 271.641 C 192.323 271.386,192.503 270.951,192.398 270.676 C 192.187 270.127,158.812 269.893,158.475 270.439 M186.368 276.703 C 186.107 276.998,185.964 277.309,186.049 277.394 C 186.134 277.479,186.490 277.231,186.840 276.844 C 187.191 276.457,187.334 276.146,187.160 276.154 C 186.985 276.161,186.629 276.408,186.368 276.703 M183.912 279.159 C 183.651 279.454,183.508 279.765,183.592 279.850 C 183.677 279.935,184.034 279.688,184.384 279.300 C 184.734 278.913,184.878 278.602,184.704 278.610 C 184.529 278.617,184.173 278.864,183.912 279.159 M219.806 288.822 C 225.412 294.349,230.065 298.811,230.144 298.736 C 230.223 298.662,229.907 298.274,229.442 297.875 C 228.977 297.476,225.596 294.204,221.930 290.605 C 218.263 287.006,213.991 282.871,212.437 281.416 C 210.883 279.962,214.199 283.294,219.806 288.822 M176.544 286.528 C 176.283 286.822,176.139 287.133,176.224 287.218 C 176.309 287.303,176.665 287.056,177.016 286.669 C 177.366 286.282,177.510 285.971,177.335 285.978 C 177.160 285.986,176.804 286.233,176.544 286.528 M174.592 288.599 C 174.031 289.082,173.647 289.554,173.741 289.647 C 173.834 289.741,174.363 289.345,174.916 288.768 C 176.140 287.491,175.979 287.406,174.592 288.599 M311.263 291.667 C 311.346 291.715,312.122 292.386,312.988 293.158 L 314.561 294.561 313.174 293.070 C 312.412 292.250,311.635 291.579,311.449 291.579 C 311.263 291.579,311.179 291.618,311.263 291.667 M314.748 294.803 C 315.177 295.434,321.514 301.761,321.616 301.659 C 321.679 301.595,320.123 299.972,318.158 298.052 C 316.192 296.132,314.658 294.670,314.748 294.803 M165.636 297.651 L 164.782 298.772 165.900 297.741 C 167.063 296.669,167.195 296.478,166.754 296.511 C 166.610 296.521,166.107 297.034,165.636 297.651 M163.561 299.510 C 163.300 299.805,163.157 300.116,163.242 300.201 C 163.327 300.286,163.683 300.038,164.033 299.651 C 164.384 299.264,164.527 298.953,164.353 298.961 C 164.178 298.968,163.822 299.215,163.561 299.510 M161.626 301.608 C 161.073 302.094,160.690 302.561,160.775 302.646 C 160.859 302.730,161.381 302.328,161.933 301.751 C 163.155 300.476,162.997 300.403,161.626 301.608 M322.105 302.215 C 322.105 302.275,322.618 302.789,323.246 303.355 L 324.386 304.386 323.355 303.246 C 322.395 302.183,322.105 301.944,322.105 302.215 M266.080 305.526 C 276.853 305.578,294.380 305.578,305.027 305.526 C 315.674 305.475,306.860 305.433,285.439 305.433 C 264.018 305.433,255.306 305.475,266.080 305.526"/><path id="path3" fill="#c4e4f4" fill-rule="evenodd" stroke="none" d="M64.089 43.070 C 63.942 43.308,95.946 43.307,140.000 43.066 C 149.167 43.016,135.873 42.938,110.459 42.891 C 85.045 42.845,64.179 42.925,64.089 43.070 M162.456 48.947 C 164.669 51.167,166.559 52.982,166.655 52.982 C 166.752 52.982,165.020 51.167,162.807 48.947 C 160.594 46.728,158.704 44.912,158.608 44.912 C 158.511 44.912,160.243 46.728,162.456 48.947 M245.426 64.912 C 245.426 74.851,245.471 78.917,245.526 73.947 C 245.581 68.978,245.581 60.846,245.526 55.877 C 245.471 50.908,245.426 54.974,245.426 64.912 M306.315 65.175 L 288.246 83.333 306.404 65.264 C 323.282 48.469,324.719 47.018,324.472 47.018 C 324.423 47.018,316.252 55.189,306.315 65.175 M73.901 48.355 C 73.804 48.511,81.571 56.446,91.161 65.986 L 108.596 83.333 91.231 65.879 L 73.865 48.424 112.634 48.333 L 151.404 48.243 112.740 48.156 C 91.475 48.109,73.997 48.198,73.901 48.355 M223.318 66.417 L 206.491 83.333 223.319 66.667 C 232.575 57.500,240.220 49.961,240.308 49.912 C 240.396 49.864,240.395 49.752,240.306 49.663 C 240.218 49.574,232.573 57.114,223.318 66.417 M156.652 51.316 C 156.559 51.557,156.527 58.781,156.579 67.368 L 156.674 82.982 156.758 67.062 C 156.838 51.957,156.874 51.167,157.456 51.624 C 158.013 52.060,158.025 52.048,157.589 51.491 C 157.016 50.761,156.875 50.735,156.652 51.316 M324.364 54.825 L 323.333 55.965 324.474 54.934 C 325.101 54.368,325.614 53.854,325.614 53.794 C 325.614 53.523,325.325 53.762,324.364 54.825 M320.153 59.035 L 319.123 60.175 320.263 59.145 C 320.890 58.578,321.404 58.065,321.404 58.005 C 321.404 57.733,321.114 57.972,320.153 59.035 M168.246 62.105 C 170.168 64.035,171.820 65.614,171.917 65.614 C 172.013 65.614,170.519 64.035,168.596 62.105 C 166.674 60.175,165.022 58.596,164.925 58.596 C 164.829 58.596,166.323 60.175,168.246 62.105 M176.667 62.807 C 178.395 64.544,179.889 65.965,179.985 65.965 C 180.082 65.965,178.746 64.544,177.018 62.807 C 175.289 61.070,173.795 59.649,173.699 59.649 C 173.602 59.649,174.938 61.070,176.667 62.807 M316.650 62.544 L 315.263 64.035 316.754 62.648 C 318.141 61.358,318.407 61.053,318.141 61.053 C 318.084 61.053,317.413 61.724,316.650 62.544 M313.838 65.351 L 312.807 66.491 313.947 65.461 C 314.575 64.894,315.088 64.381,315.088 64.320 C 315.088 64.049,314.798 64.288,313.838 65.351 M310.329 68.860 L 309.298 70.000 310.439 68.969 C 311.066 68.403,311.579 67.889,311.579 67.829 C 311.579 67.558,311.289 67.797,310.329 68.860 M186.667 72.456 C 188.492 74.289,190.065 75.789,190.162 75.789 C 190.258 75.789,188.843 74.289,187.018 72.456 C 185.192 70.623,183.619 69.123,183.523 69.123 C 183.426 69.123,184.841 70.623,186.667 72.456 M178.772 72.281 C 180.112 73.632,181.288 74.737,181.385 74.737 C 181.481 74.737,180.463 73.632,179.123 72.281 C 177.782 70.930,176.607 69.825,176.510 69.825 C 176.414 69.825,177.431 70.930,178.772 72.281 M300.874 78.333 L 292.807 86.491 300.965 78.424 C 305.452 73.987,309.123 70.316,309.123 70.266 C 309.123 70.017,308.371 70.753,300.874 78.333 M188.596 81.754 C 189.350 82.526,190.046 83.158,190.142 83.158 C 190.239 83.158,189.701 82.526,188.947 81.754 C 188.194 80.982,187.498 80.351,187.401 80.351 C 187.305 80.351,187.843 80.982,188.596 81.754 M200.762 81.515 L 199.997 82.329 200.086 129.147 L 200.175 175.965 246.404 175.967 L 292.632 175.969 246.491 175.878 L 200.351 175.787 200.351 129.056 L 200.351 82.326 201.114 81.514 C 201.533 81.067,201.798 80.702,201.701 80.702 C 201.605 80.702,201.182 81.068,200.762 81.515 M198.065 129.474 C 198.065 154.851,198.107 165.232,198.158 152.544 C 198.209 139.855,198.209 119.092,198.158 106.404 C 198.107 93.715,198.065 104.096,198.065 129.474 M192.718 129.385 L 192.632 170.523 151.491 170.614 L 110.351 170.705 151.502 170.791 C 184.164 170.859,192.688 170.787,192.821 170.439 C 192.912 170.197,192.946 151.605,192.896 129.123 L 192.804 88.246 192.718 129.385 M205.436 129.474 L 205.439 170.702 246.579 170.704 L 287.719 170.706 246.668 170.615 L 205.617 170.523 205.526 129.385 L 205.434 88.246 205.436 129.474 M308.933 134.649 L 325.059 134.744 322.968 136.933 L 320.877 139.123 323.054 137.045 C 324.251 135.902,325.149 134.836,325.050 134.677 C 324.952 134.517,317.656 134.424,308.839 134.470 L 292.807 134.554 308.933 134.649 M331.039 136.228 L 329.298 138.070 331.140 136.329 C 332.852 134.711,333.143 134.386,332.882 134.386 C 332.826 134.386,331.997 135.215,331.039 136.228 M65.614 137.368 C 66.269 138.044,66.883 138.596,66.980 138.596 C 67.076 138.596,66.620 138.044,65.965 137.368 C 65.310 136.693,64.696 136.140,64.599 136.140 C 64.503 136.140,64.959 136.693,65.614 137.368 M67.368 139.057 C 67.368 139.118,67.882 139.631,68.509 140.198 L 69.649 141.228 68.619 140.088 C 67.658 139.025,67.368 138.786,67.368 139.057 M323.151 144.474 L 319.825 147.895 323.246 144.568 C 325.127 142.739,326.667 141.199,326.667 141.147 C 326.667 140.893,326.240 141.296,323.151 144.474 M71.930 143.684 C 73.173 144.939,74.269 145.965,74.366 145.965 C 74.462 145.965,73.524 144.939,72.281 143.684 C 71.037 142.430,69.941 141.404,69.845 141.404 C 69.748 141.404,70.687 142.430,71.930 143.684 M311.221 149.035 L 307.895 152.456 311.316 149.130 C 314.493 146.040,314.896 145.614,314.642 145.614 C 314.590 145.614,313.051 147.154,311.221 149.035 M74.737 146.426 C 74.737 146.486,75.250 146.999,75.877 147.566 L 77.018 148.596 75.987 147.456 C 75.026 146.393,74.737 146.155,74.737 146.426 M80.351 152.040 C 80.351 152.100,80.864 152.613,81.491 153.180 L 82.632 154.211 81.601 153.070 C 80.640 152.007,80.351 151.769,80.351 152.040 M310.344 157.632 L 306.842 161.228 310.439 157.726 C 312.417 155.800,314.035 154.181,314.035 154.129 C 314.035 153.876,313.597 154.291,310.344 157.632 M82.807 154.496 C 82.807 154.556,83.320 155.069,83.947 155.636 L 85.088 156.667 84.057 155.526 C 83.097 154.463,82.807 154.225,82.807 154.496 M85.263 156.952 C 85.263 157.012,85.776 157.525,86.404 158.092 L 87.544 159.123 86.513 157.982 C 85.553 156.919,85.263 156.681,85.263 156.952 M298.590 162.018 L 294.912 165.789 298.684 162.112 C 300.759 160.089,302.456 158.391,302.456 158.340 C 302.456 158.086,302.006 158.514,298.590 162.018 M87.719 159.408 C 87.719 159.468,88.232 159.982,88.860 160.548 L 90.000 161.579 88.969 160.439 C 88.009 159.376,87.719 159.137,87.719 159.408 M90.175 161.864 C 90.175 161.925,90.689 162.438,91.316 163.005 L 92.456 164.035 91.426 162.895 C 90.465 161.832,90.175 161.593,90.175 161.864 M92.632 164.320 C 92.632 164.381,93.145 164.894,93.772 165.461 L 94.912 166.491 93.882 165.351 C 92.921 164.288,92.632 164.049,92.632 164.320 M299.464 168.860 L 297.018 171.404 299.561 168.957 C 300.961 167.611,302.105 166.466,302.105 166.413 C 302.105 166.156,301.737 166.497,299.464 168.860 M95.088 166.776 C 95.088 166.837,95.601 167.350,96.228 167.917 L 97.368 168.947 96.338 167.807 C 95.377 166.744,95.088 166.505,95.088 166.776 M127.834 176.053 C 140.731 176.104,161.731 176.104,174.501 176.053 C 187.271 176.002,176.719 175.960,151.053 175.960 C 125.386 175.960,114.938 176.002,127.834 176.053 M151.841 178.157 L 197.892 178.248 197.983 225.089 L 198.074 271.930 198.072 225.000 L 198.070 178.070 151.930 178.068 L 105.789 178.066 151.841 178.157 M200.162 178.333 C 200.070 178.575,200.036 199.377,200.087 224.561 L 200.178 270.351 200.264 224.300 L 200.351 178.248 247.456 178.158 L 294.561 178.068 247.445 177.981 C 210.011 177.912,200.295 177.985,200.162 178.333 M98.239 185.877 L 94.561 189.649 98.333 185.971 C 101.837 182.555,102.265 182.105,102.011 182.105 C 101.960 182.105,100.262 183.803,98.239 185.877 M287.538 223.860 C 287.538 246.535,287.580 255.811,287.632 244.474 C 287.683 233.136,287.683 214.583,287.632 203.246 C 287.580 191.908,287.538 201.184,287.538 223.860 M131.667 183.421 C 143.004 183.472,161.557 183.472,172.895 183.421 C 184.232 183.370,174.956 183.328,152.281 183.328 C 129.605 183.328,120.329 183.370,131.667 183.421 M292.792 184.649 C 292.700 184.890,292.667 192.430,292.719 201.404 L 292.814 217.719 292.898 201.066 L 292.982 184.413 309.488 200.891 C 318.565 209.953,326.105 217.441,326.242 217.530 C 326.379 217.619,318.992 210.158,309.826 200.951 C 300.660 191.744,293.116 184.211,293.061 184.211 C 293.005 184.211,292.885 184.408,292.792 184.649 M100.175 191.579 C 97.866 193.895,96.055 195.789,96.151 195.789 C 96.248 195.789,98.217 193.895,100.526 191.579 C 102.836 189.263,104.647 187.368,104.550 187.368 C 104.454 187.368,102.485 189.263,100.175 191.579 M86.618 197.744 C 84.233 200.171,82.207 202.263,82.117 202.394 C 82.027 202.524,84.041 200.581,86.591 198.075 C 89.141 195.569,91.228 193.477,91.228 193.426 C 91.228 193.113,90.520 193.777,86.618 197.744 M87.182 205.000 L 85.088 207.193 87.281 205.099 C 89.318 203.153,89.634 202.807,89.375 202.807 C 89.321 202.807,88.334 203.794,87.182 205.000 M77.007 207.807 L 74.912 210.000 77.105 207.906 C 79.142 205.960,79.459 205.614,79.200 205.614 C 79.145 205.614,78.158 206.601,77.007 207.807 M73.487 211.316 L 72.456 212.456 73.596 211.426 C 74.659 210.465,74.898 210.175,74.627 210.175 C 74.567 210.175,74.054 210.689,73.487 211.316 M77.889 214.649 L 73.860 218.772 77.982 214.743 C 81.812 211.000,82.265 210.526,82.012 210.526 C 81.960 210.526,80.105 212.382,77.889 214.649 M67.719 217.270 C 66.116 219.038,66.166 219.105,67.878 217.480 C 68.640 216.757,69.193 216.108,69.106 216.040 C 69.019 215.972,68.395 216.525,67.719 217.270 M334.205 264.211 C 334.205 289.781,334.247 300.241,334.298 287.456 C 334.349 274.671,334.349 253.750,334.298 240.965 C 334.247 228.180,334.205 238.640,334.205 264.211 M89.649 218.947 L 73.509 219.133 89.737 219.216 C 100.377 219.270,105.965 219.177,105.965 218.947 C 105.965 218.754,105.925 218.634,105.877 218.679 C 105.829 218.724,98.526 218.845,89.649 218.947 M292.796 244.211 C 292.796 256.079,292.841 260.934,292.895 255.000 C 292.948 249.066,292.948 239.355,292.895 233.421 C 292.841 227.487,292.796 232.342,292.796 244.211 M328.591 262.281 C 328.591 284.088,328.633 292.957,328.684 281.991 C 328.736 271.024,328.736 253.182,328.684 242.341 C 328.633 231.501,328.591 240.474,328.591 262.281 M70.963 263.246 C 70.916 284.618,70.996 302.105,71.142 302.105 C 71.287 302.105,79.221 294.250,88.773 284.649 L 106.140 267.193 88.686 284.559 L 71.231 301.924 71.140 263.155 L 71.050 224.386 70.963 263.246 M131.667 265.526 C 143.004 265.578,161.557 265.578,172.895 265.526 C 184.232 265.475,174.956 265.433,152.281 265.433 C 129.605 265.433,120.329 265.475,131.667 265.526 M240.966 280.614 C 241.015 286.355,241.098 293.658,241.151 296.842 C 241.203 300.026,241.282 295.329,241.325 286.404 C 241.368 277.478,241.285 270.175,241.140 270.175 C 240.996 270.175,240.917 274.872,240.966 280.614 M306.664 287.455 L 324.029 304.909 285.260 305.000 L 246.491 305.091 285.351 305.177 C 306.724 305.224,324.211 305.144,324.211 304.999 C 324.211 304.853,316.355 296.919,306.754 287.367 L 289.298 270.000 306.664 287.455 M200.351 270.636 C 200.351 270.696,200.864 271.210,201.491 271.776 L 202.632 272.807 201.601 271.667 C 200.640 270.604,200.351 270.365,200.351 270.636 M175.086 287.632 L 158.421 304.386 175.175 287.721 C 184.390 278.555,191.930 271.015,191.930 270.966 C 191.930 270.720,190.577 272.058,175.086 287.632 M209.164 271.667 C 209.251 271.715,211.686 274.044,214.574 276.842 L 219.825 281.930 214.741 276.754 C 211.946 273.908,209.511 271.579,209.332 271.579 C 209.153 271.579,209.077 271.618,209.164 271.667 M209.123 279.123 C 211.336 281.342,213.225 283.158,213.322 283.158 C 213.418 283.158,211.687 281.342,209.474 279.123 C 207.261 276.904,205.371 275.088,205.275 275.088 C 205.178 275.088,206.910 276.904,209.123 279.123 M103.662 277.281 L 102.632 278.421 103.772 277.390 C 104.835 276.430,105.074 276.140,104.802 276.140 C 104.742 276.140,104.229 276.654,103.662 277.281 M98.750 282.193 L 97.719 283.333 98.860 282.303 C 99.923 281.342,100.161 281.053,99.890 281.053 C 99.830 281.053,99.317 281.566,98.750 282.193 M96.294 284.649 L 95.263 285.789 96.404 284.759 C 97.466 283.798,97.705 283.509,97.434 283.509 C 97.374 283.509,96.861 284.022,96.294 284.649 M216.140 285.668 C 216.140 285.991,225.932 295.590,226.425 295.750 C 226.654 295.824,226.758 295.824,226.654 295.750 C 226.551 295.675,224.143 293.327,221.304 290.531 C 218.464 287.735,216.140 285.547,216.140 285.668 M93.492 287.456 L 92.105 288.947 93.596 287.560 C 94.983 286.270,95.249 285.965,94.983 285.965 C 94.926 285.965,94.255 286.636,93.492 287.456 M228.070 290.000 C 229.896 291.833,231.469 293.333,231.565 293.333 C 231.662 293.333,230.247 291.833,228.421 290.000 C 226.595 288.167,225.023 286.667,224.926 286.667 C 224.830 286.667,226.244 288.167,228.070 290.000 M90.680 290.263 L 89.649 291.404 90.789 290.373 C 91.852 289.412,92.091 289.123,91.820 289.123 C 91.760 289.123,91.246 289.636,90.680 290.263 M88.224 292.719 L 87.193 293.860 88.333 292.829 C 89.396 291.868,89.635 291.579,89.364 291.579 C 89.304 291.579,88.790 292.092,88.224 292.719 M85.767 295.175 L 84.737 296.316 85.877 295.285 C 86.940 294.325,87.179 294.035,86.908 294.035 C 86.847 294.035,86.334 294.548,85.767 295.175 M236.836 298.333 C 240.252 301.837,240.702 302.265,240.702 302.011 C 240.702 301.960,239.004 300.262,236.930 298.239 L 233.158 294.561 236.836 298.333 M83.311 297.632 L 82.281 298.772 83.421 297.741 C 84.484 296.781,84.723 296.491,84.452 296.491 C 84.391 296.491,83.878 297.004,83.311 297.632 M232.976 302.193 C 236.392 305.696,236.842 306.124,236.842 305.871 C 236.842 305.819,235.145 304.122,233.070 302.099 L 229.298 298.421 232.976 302.193 M80.855 300.088 L 79.825 301.228 80.965 300.198 C 82.028 299.237,82.267 298.947,81.995 298.947 C 81.935 298.947,81.422 299.461,80.855 300.088 M78.399 302.544 L 77.368 303.684 78.509 302.654 C 79.572 301.693,79.810 301.404,79.539 301.404 C 79.479 301.404,78.966 301.917,78.399 302.544 M75.943 305.000 L 74.912 306.140 76.053 305.110 C 77.116 304.149,77.354 303.860,77.083 303.860 C 77.023 303.860,76.510 304.373,75.943 305.000 M94.298 306.930 C 105.154 306.981,122.917 306.981,133.772 306.930 C 144.627 306.878,135.746 306.836,114.035 306.836 C 92.325 306.836,83.443 306.878,94.298 306.930 M240.088 309.151 C 240.425 309.348,240.702 309.728,240.702 309.997 C 240.702 310.265,240.858 310.581,241.049 310.699 C 241.255 310.827,241.304 310.658,241.170 310.281 C 240.844 309.369,240.324 308.770,239.869 308.783 C 239.652 308.788,239.750 308.954,240.088 309.151 M88.536 312.193 C 101.433 312.244,122.433 312.244,135.203 312.193 C 147.973 312.142,137.421 312.100,111.754 312.100 C 86.088 312.100,75.639 312.142,88.536 312.193"/><path id="path4" fill="#a7d8f2" fill-rule="evenodd" stroke="none" d="M286.582 42.017 L 332.637 42.108 332.546 88.405 C 332.497 113.868,332.575 134.583,332.721 134.437 C 332.866 134.292,332.945 113.418,332.896 88.051 L 332.807 41.930 286.667 41.928 L 240.526 41.926 286.582 42.017 M238.405 43.947 L 237.018 45.439 238.509 44.052 C 239.896 42.762,240.161 42.456,239.896 42.456 C 239.838 42.456,239.167 43.127,238.405 43.947 M64.030 89.474 C 64.030 114.851,64.072 125.232,64.123 112.544 C 64.174 99.855,64.174 79.092,64.123 66.404 C 64.072 53.715,64.030 64.096,64.030 89.474 M161.228 48.070 C 162.957 49.807,164.450 51.228,164.547 51.228 C 164.643 51.228,163.308 49.807,161.579 48.070 C 159.850 46.333,158.357 44.912,158.260 44.912 C 158.164 44.912,159.499 46.333,161.228 48.070 M233.501 48.860 L 230.351 52.105 233.596 48.955 C 235.382 47.222,236.842 45.761,236.842 45.709 C 236.842 45.454,236.428 45.845,233.501 48.860 M265.202 46.930 C 276.073 46.981,293.757 46.981,304.501 46.930 C 315.245 46.878,306.351 46.836,284.737 46.836 C 263.123 46.836,254.332 46.878,265.202 46.930 M306.665 65.175 L 288.596 83.333 306.754 65.264 C 323.632 48.469,325.070 47.018,324.823 47.018 C 324.774 47.018,316.603 55.189,306.665 65.175 M156.491 50.936 C 156.491 51.161,156.601 51.235,156.736 51.100 C 156.870 50.966,158.252 52.084,159.806 53.586 L 162.632 56.316 159.833 53.421 C 157.070 50.564,156.491 50.133,156.491 50.936 M310.084 68.688 L 292.626 86.148 292.719 107.899 L 292.812 129.649 292.897 107.896 L 292.982 86.143 310.437 68.686 C 320.037 59.084,327.813 51.228,327.717 51.228 C 327.620 51.228,319.685 59.085,310.084 68.688 M327.889 90.702 C 327.889 112.123,327.931 120.834,327.982 110.061 C 328.034 99.287,328.034 81.761,327.982 71.113 C 327.931 60.466,327.889 69.281,327.889 90.702 M228.580 53.772 L 227.193 55.263 228.684 53.876 C 230.071 52.586,230.337 52.281,230.071 52.281 C 230.014 52.281,229.343 52.952,228.580 53.772 M171.573 57.982 C 174.989 61.486,175.439 61.914,175.439 61.660 C 175.439 61.609,173.741 59.911,171.667 57.888 L 167.895 54.211 171.573 57.982 M225.422 56.930 L 224.035 58.421 225.526 57.034 C 226.913 55.744,227.179 55.439,226.913 55.439 C 226.856 55.439,226.185 56.110,225.422 56.930 M220.519 61.842 L 217.368 65.088 220.614 61.937 C 223.628 59.011,224.019 58.596,223.765 58.596 C 223.712 58.596,222.252 60.057,220.519 61.842 M169.825 63.333 C 171.650 65.167,173.223 66.667,173.319 66.667 C 173.416 66.667,172.001 65.167,170.175 63.333 C 168.350 61.500,166.777 60.000,166.681 60.000 C 166.584 60.000,167.999 61.500,169.825 63.333 M215.598 66.754 L 214.211 68.246 215.702 66.859 C 217.089 65.569,217.354 65.263,217.089 65.263 C 217.031 65.263,216.360 65.934,215.598 66.754 M183.333 69.474 C 185.256 71.404,186.908 72.982,187.004 72.982 C 187.101 72.982,185.607 71.404,183.684 69.474 C 181.762 67.544,180.110 65.965,180.013 65.965 C 179.917 65.965,181.411 67.544,183.333 69.474 M221.557 67.807 L 220.526 68.947 221.667 67.917 C 222.294 67.350,222.807 66.837,222.807 66.776 C 222.807 66.505,222.517 66.744,221.557 67.807 M211.918 70.439 L 210.000 72.456 212.018 70.538 C 213.892 68.757,214.196 68.421,213.935 68.421 C 213.881 68.421,212.973 69.329,211.918 70.439 M219.101 70.263 L 218.070 71.404 219.211 70.373 C 219.838 69.806,220.351 69.293,220.351 69.233 C 220.351 68.962,220.061 69.200,219.101 70.263 M208.574 73.772 L 207.544 74.912 208.684 73.882 C 209.311 73.315,209.825 72.802,209.825 72.741 C 209.825 72.470,209.535 72.709,208.574 73.772 M183.684 76.842 C 185.607 78.772,187.259 80.351,187.355 80.351 C 187.452 80.351,185.958 78.772,184.035 76.842 C 182.113 74.912,180.461 73.333,180.364 73.333 C 180.268 73.333,181.762 74.912,183.684 76.842 M205.417 76.930 L 204.386 78.070 205.526 77.040 C 206.154 76.473,206.667 75.960,206.667 75.899 C 206.667 75.628,206.377 75.867,205.417 76.930 M195.439 81.228 C 196.682 82.482,197.778 83.509,197.874 83.509 C 197.971 83.509,197.033 82.482,195.789 81.228 C 194.546 79.974,193.450 78.947,193.354 78.947 C 193.257 78.947,194.195 79.974,195.439 81.228 M105.348 109.032 L 105.263 130.520 87.105 130.614 L 68.947 130.708 87.116 130.793 C 101.391 130.859,105.321 130.783,105.453 130.439 C 105.545 130.197,105.578 120.447,105.527 108.772 L 105.433 87.544 105.348 109.032 M110.337 88.509 C 110.245 88.750,110.212 107.342,110.262 129.825 L 110.354 170.702 110.440 129.563 L 110.526 88.424 151.667 88.333 L 192.807 88.243 151.656 88.156 C 118.994 88.088,110.470 88.161,110.337 88.509 M246.490 88.333 L 287.716 88.424 287.808 129.475 L 287.899 170.526 287.897 129.386 L 287.895 88.246 246.579 88.243 L 205.263 88.241 246.490 88.333 M292.716 151.120 C 292.633 167.309,292.722 168.740,293.732 167.452 C 294.164 166.901,294.152 166.888,293.600 167.321 C 293.022 167.774,292.984 166.914,292.895 151.180 L 292.800 134.561 292.716 151.120 M105.425 152.456 C 105.425 161.526,105.470 165.287,105.526 160.814 C 105.581 156.340,105.581 148.919,105.526 144.322 C 105.471 139.726,105.425 143.386,105.425 152.456 M318.064 142.193 L 314.561 145.789 318.158 142.287 C 320.136 140.361,321.754 138.743,321.754 138.691 C 321.754 138.437,321.316 138.853,318.064 142.193 M324.730 142.544 L 321.579 145.789 324.825 142.639 C 327.839 139.713,328.230 139.298,327.975 139.298 C 327.923 139.298,326.462 140.759,324.730 142.544 M309.117 151.491 L 305.439 155.263 309.211 151.585 C 312.714 148.169,313.142 147.719,312.888 147.719 C 312.837 147.719,311.139 149.417,309.117 151.491 M312.976 154.649 L 309.298 158.421 313.070 154.743 C 315.145 152.720,316.842 151.023,316.842 150.971 C 316.842 150.718,316.392 151.146,312.976 154.649 M304.027 163.947 L 301.228 166.842 304.123 164.043 C 306.811 161.444,307.178 161.053,306.922 161.053 C 306.869 161.053,305.566 162.355,304.027 163.947 M296.842 164.035 C 295.404 165.482,294.307 166.667,294.404 166.667 C 294.500 166.667,295.755 165.482,297.193 164.035 C 298.631 162.588,299.728 161.404,299.632 161.404 C 299.535 161.404,298.280 162.588,296.842 164.035 M299.802 168.158 L 298.772 169.298 299.912 168.268 C 300.539 167.701,301.053 167.188,301.053 167.127 C 301.053 166.856,300.763 167.095,299.802 168.158 M104.211 179.825 C 103.358 180.693,102.740 181.404,102.836 181.404 C 102.933 181.404,103.709 180.693,104.561 179.825 C 105.414 178.956,106.032 178.246,105.936 178.246 C 105.839 178.246,105.063 178.956,104.211 179.825 M296.140 180.110 C 296.140 180.170,296.654 180.683,297.281 181.250 L 298.421 182.281 297.390 181.140 C 296.430 180.077,296.140 179.839,296.140 180.110 M205.074 182.895 C 204.982 183.136,204.948 201.728,204.997 224.211 L 205.088 265.088 246.404 265.090 L 287.719 265.092 246.491 265.001 L 205.263 264.909 205.263 223.860 L 205.263 182.810 246.579 182.719 L 287.895 182.629 246.568 182.542 C 213.766 182.474,205.207 182.547,205.074 182.895 M111.047 224.386 C 111.047 247.158,111.089 256.422,111.140 244.973 C 111.192 233.524,111.192 214.892,111.140 203.569 C 111.089 192.247,111.047 201.614,111.047 224.386 M193.503 224.211 C 193.503 246.886,193.545 256.162,193.596 244.825 C 193.648 233.487,193.648 214.934,193.596 203.596 C 193.545 192.259,193.503 201.535,193.503 224.211 M292.632 184.269 C 292.632 184.494,292.739 184.571,292.870 184.440 C 293.002 184.308,293.594 184.637,294.186 185.171 L 295.263 186.140 294.233 185.000 C 293.159 183.813,292.632 183.571,292.632 184.269 M300.000 183.969 C 300.000 184.030,300.513 184.543,301.140 185.110 L 302.281 186.140 301.250 185.000 C 300.290 183.937,300.000 183.698,300.000 183.969 M95.081 189.386 L 91.754 192.807 95.175 189.481 C 97.057 187.651,98.596 186.112,98.596 186.060 C 98.596 185.805,98.170 186.209,95.081 189.386 M101.397 190.088 L 98.070 193.509 101.491 190.182 C 103.373 188.353,104.912 186.813,104.912 186.761 C 104.912 186.507,104.486 186.910,101.397 190.088 M303.509 187.478 C 303.509 187.539,304.022 188.052,304.649 188.619 L 305.789 189.649 304.759 188.509 C 303.798 187.446,303.509 187.207,303.509 187.478 M84.737 200.000 C 82.427 202.316,80.616 204.211,80.713 204.211 C 80.809 204.211,82.778 202.316,85.088 200.000 C 87.397 197.684,89.208 195.789,89.112 195.789 C 89.015 195.789,87.047 197.684,84.737 200.000 M89.818 202.018 L 86.140 205.789 89.912 202.112 C 91.987 200.089,93.684 198.391,93.684 198.340 C 93.684 198.086,93.234 198.514,89.818 202.018 M316.491 200.461 C 316.491 200.521,317.004 201.034,317.632 201.601 L 318.772 202.632 317.741 201.491 C 316.781 200.428,316.491 200.190,316.491 200.461 M72.274 212.895 L 68.947 216.316 72.368 212.989 C 75.546 209.900,75.949 209.474,75.695 209.474 C 75.643 209.474,74.103 211.013,72.274 212.895 M78.765 213.421 L 75.614 216.667 78.860 213.516 C 80.645 211.783,82.105 210.323,82.105 210.270 C 82.105 210.016,81.691 210.407,78.765 213.421 M300.965 217.807 C 305.452 217.862,312.794 217.862,317.281 217.807 C 321.768 217.751,318.096 217.706,309.123 217.706 C 300.149 217.706,296.478 217.751,300.965 217.807 M73.552 218.785 C 73.220 219.650,73.457 219.661,90.000 219.561 L 105.789 219.466 89.748 219.382 C 75.655 219.308,73.731 219.234,73.908 218.772 C 74.019 218.482,74.031 218.246,73.935 218.246 C 73.838 218.246,73.666 218.488,73.552 218.785 M301.867 222.719 C 306.849 222.774,314.902 222.774,319.761 222.719 C 324.621 222.664,320.544 222.619,310.702 222.619 C 300.860 222.619,296.884 222.664,301.867 222.719 M328.857 262.281 L 328.770 301.930 310.701 283.853 C 300.763 273.910,292.632 265.858,292.632 265.959 C 292.632 266.328,328.750 302.244,328.935 302.059 C 329.040 301.954,329.085 284.040,329.035 262.250 L 328.944 222.632 328.857 262.281 M79.937 224.473 C 84.823 224.529,92.718 224.528,97.481 224.473 C 102.243 224.418,98.246 224.373,88.596 224.373 C 78.947 224.373,75.050 224.418,79.937 224.473 M88.414 285.089 C 78.857 294.641,71.121 302.456,71.222 302.456 C 71.323 302.456,79.221 294.640,88.772 285.088 C 98.323 275.535,106.059 267.720,105.964 267.720 C 105.868 267.721,97.970 275.537,88.414 285.089 M201.740 271.667 C 202.600 272.583,203.350 273.333,203.406 273.333 C 203.670 273.333,203.391 273.018,201.842 271.564 L 200.175 270.000 201.740 271.667 M246.479 287.719 C 246.479 297.465,246.524 301.452,246.579 296.579 C 246.634 291.706,246.634 283.732,246.579 278.860 C 246.524 273.987,246.479 277.974,246.479 287.719 M300.351 280.877 C 306.234 286.763,311.127 291.579,311.224 291.579 C 311.320 291.579,306.585 286.763,300.702 280.877 C 294.818 274.991,289.925 270.175,289.829 270.175 C 289.732 270.175,294.467 274.991,300.351 280.877 M92.016 288.514 C 74.801 305.740,73.584 307.018,74.386 307.018 C 74.579 307.018,74.737 306.820,74.737 306.578 C 74.737 306.336,82.672 298.204,92.370 288.507 L 110.003 270.877 131.665 270.877 L 153.327 270.877 153.423 288.509 L 153.518 306.140 153.514 288.421 L 153.509 270.702 131.752 270.611 L 109.996 270.521 92.016 288.514 M158.406 270.965 C 158.314 271.206,158.281 278.746,158.333 287.719 L 158.428 304.035 158.512 287.456 L 158.596 270.877 175.306 270.877 C 191.170 270.877,191.991 270.908,191.534 271.491 C 191.098 272.047,191.111 272.060,191.663 271.627 C 191.998 271.364,192.186 271.009,192.081 270.837 C 191.757 270.314,158.608 270.439,158.406 270.965 M212.807 275.439 C 214.730 277.368,216.382 278.947,216.478 278.947 C 216.575 278.947,215.080 277.368,213.158 275.439 C 211.235 273.509,209.583 271.930,209.487 271.930 C 209.390 271.930,210.884 273.509,212.807 275.439 M177.543 292.544 L 158.070 312.105 177.632 292.633 C 188.390 281.923,197.193 273.120,197.193 273.071 C 197.193 272.825,195.643 274.361,177.543 292.544 M211.930 281.579 C 213.756 283.412,215.328 284.912,215.425 284.912 C 215.521 284.912,214.106 283.412,212.281 281.579 C 210.455 279.746,208.882 278.246,208.786 278.246 C 208.689 278.246,210.104 279.746,211.930 281.579 M182.259 280.789 L 181.228 281.930 182.368 280.899 C 183.431 279.939,183.670 279.649,183.399 279.649 C 183.339 279.649,182.825 280.162,182.259 280.789 M224.907 287.105 C 229.303 291.587,229.825 292.089,229.825 291.837 C 229.825 291.786,227.654 289.615,225.000 287.013 L 220.175 282.281 224.907 287.105 M178.048 285.000 L 177.018 286.140 178.158 285.110 C 179.221 284.149,179.460 283.860,179.188 283.860 C 179.128 283.860,178.615 284.373,178.048 285.000 M222.450 291.667 C 225.866 295.170,226.316 295.598,226.316 295.345 C 226.316 295.293,224.618 293.596,222.544 291.573 L 218.772 287.895 222.450 291.667 M171.732 291.316 L 170.702 292.456 171.842 291.426 C 172.905 290.465,173.144 290.175,172.873 290.175 C 172.812 290.175,172.299 290.689,171.732 291.316 M314.561 295.088 C 316.290 296.825,317.784 298.246,317.880 298.246 C 317.977 298.246,316.641 296.825,314.912 295.088 C 313.183 293.351,311.690 291.930,311.594 291.930 C 311.497 291.930,312.833 293.351,314.561 295.088 M167.878 295.175 L 166.491 296.667 167.982 295.280 C 169.369 293.990,169.635 293.684,169.369 293.684 C 169.312 293.684,168.641 294.355,167.878 295.175 M235.965 297.895 C 238.081 300.018,239.892 301.754,239.988 301.754 C 240.085 301.754,238.432 300.018,236.316 297.895 C 234.200 295.772,232.389 294.035,232.293 294.035 C 232.196 294.035,233.849 295.772,235.965 297.895 M165.066 297.982 L 164.035 299.123 165.175 298.092 C 166.238 297.132,166.477 296.842,166.206 296.842 C 166.146 296.842,165.632 297.355,165.066 297.982 M319.474 300.000 C 320.227 300.772,320.923 301.404,321.020 301.404 C 321.116 301.404,320.578 300.772,319.825 300.000 C 319.071 299.228,318.375 298.596,318.279 298.596 C 318.182 298.596,318.720 299.228,319.474 300.000 M161.908 301.140 L 160.877 302.281 162.018 301.250 C 163.081 300.290,163.319 300.000,163.048 300.000 C 162.988 300.000,162.475 300.513,161.908 301.140 M322.825 303.352 C 323.683 304.327,324.457 305.071,324.544 305.006 C 324.632 304.941,323.929 304.143,322.983 303.233 L 321.263 301.579 322.825 303.352 M236.491 305.439 C 238.317 307.272,239.890 308.772,239.986 308.772 C 240.083 308.772,238.668 307.272,236.842 305.439 C 235.016 303.605,233.444 302.105,233.347 302.105 C 233.251 302.105,234.666 303.605,236.491 305.439 M159.452 303.596 L 158.421 304.737 159.561 303.706 C 160.624 302.746,160.863 302.456,160.592 302.456 C 160.532 302.456,160.018 302.969,159.452 303.596"/></g></svg>